<svg width="287" height="320" viewBox="0 0 287 320" fill="none" xmlns="http://www.w3.org/2000/svg">
<path d="M0.0340614 96.8649V223.135C0.0340614 235.179 6.46222 246.32 16.899 252.333L126.25 315.477C136.687 321.508 149.543 321.508 159.98 315.477L269.331 252.333C279.768 246.302 286.196 235.179 286.196 223.135V96.8649C286.196 84.8211 279.768 73.6802 269.331 67.6673L159.98 4.52319C149.543 -1.50773 136.687 -1.50773 126.25 4.52319L16.899 67.6492C6.46222 73.6802 0.0340614 84.8031 0.0340614 96.8649Z" fill="url(#paint0_linear)"/>
<path d="M269.875 159.269C269.821 155.838 269.875 152.389 269.694 148.958C269.532 145.907 269.369 142.801 268.701 139.822C268.25 137.835 267.383 135.343 265.866 134.278C258.553 129.222 247.322 127.11 241.092 138.413C240.352 139.749 239.196 140.995 237.969 141.916C234.303 144.661 230.403 147.098 226.773 149.879C223.072 152.714 219.551 155.766 215.994 158.799C212.563 161.724 209.186 164.758 205.701 167.809C205.701 161.778 205.647 156.018 205.719 150.276C205.792 143.938 205.9 137.601 206.099 131.263C206.225 127.019 205.322 125.015 202.126 124.094C200.158 123.534 198.063 123.354 196.005 123.245C194.217 123.155 192.646 123.805 192.087 125.773C191.527 127.76 190.137 128.265 188.241 128.229C184.178 128.175 180.115 128.049 176.07 128.356C173.597 128.554 170.437 128.771 168.902 130.306C165.489 133.718 162.69 137.817 160.072 141.898C158.176 144.859 156.894 148.236 155.432 151.468C154.709 153.057 154.402 154.863 153.59 156.361C152.561 158.257 135.985 193.251 133.493 199.589C132.572 201.918 131.308 204.103 130.134 206.505C128.961 204.681 126.18 193.359 125.855 189.116C125.71 187.347 125.999 185.541 126.053 183.753C126.108 182.056 126.053 180.341 126.18 178.643C126.27 177.434 126.577 176.242 126.812 175.05C127.534 171.132 128.148 167.195 129.051 163.313C129.755 160.226 130.947 157.264 131.687 154.195C132.879 149.175 133.782 144.083 135.01 139.063C136.978 131.064 135.804 130.613 129.827 129.114C127.39 128.5 125.945 129.349 124.826 130.793C122.731 133.502 120.889 136.427 119.174 139.388C114.497 147.514 109.73 155.585 105.415 163.891C101.406 171.619 97.9934 179.673 94.2376 187.527C93.2806 189.513 92.0167 191.355 90.4999 193.937C89.9943 191.68 89.4707 190.272 89.3804 188.809C88.6942 177.415 90.3735 166.275 93.3709 155.314C94.4543 151.342 95.9169 147.441 96.5489 143.397C97.2531 138.919 97.0906 136.12 91.493 134.675C90.861 134.513 90.211 134.35 89.6332 134.079C87.7372 133.159 86.2566 133.736 85.426 135.488C83.6203 139.298 81.291 143.054 80.4424 147.098C78.6367 155.621 77.1741 164.27 76.4699 172.937C75.8199 181.153 76.3074 189.477 79.5395 197.332C82.4828 204.464 92.8292 206.523 98.3726 201.088C104.404 195.165 107.329 187.401 110.886 180.016C112.8 176.043 114.642 172.035 116.538 168.026C116.754 171.475 116.592 174.725 116.483 177.993C116.357 181.785 115.779 185.649 116.321 189.333C117.133 194.985 118.506 200.6 120.077 206.089C120.943 209.123 122.298 212.175 124.121 214.721C126.306 217.754 132.319 217.357 135.19 213.944C138.115 210.477 140.86 206.721 142.954 202.713C145.392 198.036 147.035 192.944 149.094 187.852C151.333 195.815 157.797 196.465 163.196 194.985C167.295 193.865 169.769 190.868 172.17 187.672C179.266 178.264 181.596 166.545 187.302 156.452C189.216 153.075 190.985 149.626 192.953 145.997C192.953 153.382 192.935 160.262 192.953 167.141C192.971 172.54 192.231 177.397 189.18 182.399C183.203 192.204 178.436 202.731 173.217 213.005C171.574 216.219 169.985 219.487 168.667 222.846C167.457 225.898 166.627 229.112 165.616 232.254C164.442 235.955 162.961 239.585 162.095 243.34L164.604 238.23L164.929 237.833C166.374 236.063 168.487 235.07 170.744 235.07C172.206 235.07 173.579 235.486 174.734 236.208C175.529 232.47 176.558 228.787 177.84 225.139C179.266 221.095 181.253 217.248 182.968 213.294C183.889 211.163 184.665 208.979 185.64 206.866C187.067 203.778 188.584 200.745 190.1 197.711C190.227 197.458 190.66 197.35 191.274 196.989C191.274 200.402 191.419 203.399 191.22 206.36C191.075 208.635 190.425 210.856 190.082 213.113C188.963 220.426 188.078 227.775 186.832 235.07H196.149C196.872 235.07 197.576 235.179 198.226 235.377C198.605 232.922 198.948 230.466 199.291 228.028C200.952 215.605 202.271 203.146 203.679 190.705C204.094 187.094 203.733 183.555 206.514 180.341C214.621 170.987 223.469 162.483 233.202 154.863C233.96 154.267 234.773 153.725 236.055 152.804C232.461 163.71 230.71 174.075 231.974 184.837C233.346 196.519 238.835 200.943 251.8 198.108C255.393 197.314 257.343 194.479 259.366 191.734C264.981 184.151 269.315 176.007 270.001 166.383C270.182 164.054 269.929 161.652 269.875 159.269ZM192.285 134.657C179.068 148.651 172.369 166.816 161.788 182.507C161.408 182.363 161.029 182.219 160.65 182.074C162.582 176.061 164.099 169.868 166.536 164.072C169.57 156.849 173.073 149.789 176.973 142.999C178.905 139.623 181.903 136.644 184.99 134.224C186.742 132.852 189.649 132.978 192.321 132.346C192.321 133.61 192.556 134.368 192.285 134.657ZM260.666 161.959C258.427 171.06 253.75 178.986 248.712 186.733C247.918 187.961 246.726 188.936 245.354 190.434C242.898 184.078 242.663 177.975 243.711 172.089C245.119 164.144 247.43 156.361 249.344 148.507C249.525 147.784 249.543 147.026 249.579 146.286C249.633 145.058 249.164 143.361 249.778 142.711C251.818 140.562 254.039 138.359 256.639 137.023C258.625 135.994 259.293 138.756 259.889 140.002C263.266 147.153 262.49 154.556 260.666 161.959Z" fill="white"/>
<path d="M66.1066 124.13C62.9828 122.993 59.8409 123.751 57.0602 125.719C52.3655 129.024 49.007 133.429 46.3887 138.431C43.3011 144.354 40.1231 150.258 37.2701 156.307C34.8505 161.435 32.8462 166.744 30.6614 171.98C29.9211 171.403 29.6322 170.771 29.6502 170.175C29.885 164.252 30.0294 158.311 30.4808 152.407C30.9684 145.834 31.5101 139.262 32.449 132.743C34.5977 117.702 37.4507 102.805 42.4524 88.378C44.3664 82.8708 41.6759 80.3609 36.0242 80.7401C34.2185 80.8665 32.4851 81.9138 30.7156 82.4916C27.8084 83.4305 26.382 85.5251 25.8583 88.4503C23.6374 100.729 20.965 112.953 19.2135 125.304C17.1911 139.623 15.6744 154.014 16.3244 168.568C17.1008 186.028 17.2814 203.525 18.0398 221.004C18.1662 224.038 17.3717 228.082 22.2109 229.364C25.6236 230.267 30.6975 227.938 30.9864 224.543C31.4559 219.018 32.0337 213.475 32.0879 207.931C32.1782 198.072 35.2478 188.827 37.5951 179.456C38.9313 174.147 40.6106 168.929 42.3982 163.765C43.9511 159.268 53.3947 139.226 59.227 135.416C59.227 135.416 50.0723 214.937 61.3577 234.33C63.5967 232.669 65.908 231.838 66.5219 230.321C67.5331 227.757 67.9484 224.724 67.7678 221.961C67.3164 214.901 65.7455 207.859 65.8177 200.835C65.8899 191.391 67.0817 181.966 67.7498 172.522C67.8039 171.691 70.2596 150.457 70.5305 147.387C70.9819 142.187 71.1986 136.969 71.2708 131.75C71.325 128.103 69.3929 125.34 66.1066 124.13Z" fill="white"/>
<path d="M203.425 89.3904L228.018 65.5015C230.276 63.3166 233.995 64.0208 235.295 66.8738C236.234 68.9142 235.53 71.3338 233.652 72.5616L204.924 91.2503C204.31 91.6475 203.479 91.4128 203.191 90.7447C202.956 90.2933 203.064 89.7516 203.425 89.3904Z" fill="#FCE100"/>
<path d="M144.306 69.6176L146.852 35.7614C147.069 32.782 144.469 30.3805 141.508 30.85C139.124 31.2292 137.445 33.3779 137.626 35.7794L140.208 69.6176C140.298 70.7371 141.255 71.5677 142.374 71.5136C143.404 71.4413 144.216 70.6288 144.306 69.6176Z" fill="#FCE100"/>
<path d="M89.3969 86.9513L70.4014 67.8112C68.2165 65.6083 64.4968 66.2764 63.2148 69.0932C62.2939 71.1336 63.0162 73.5352 64.9302 74.7089L87.8802 88.8472C88.5122 89.2264 89.3247 88.9917 89.6317 88.3055C89.8664 87.8541 89.7581 87.3124 89.3969 86.9513Z" fill="#FCE100"/>
<path d="M36.2696 79.6285C36.2696 79.6285 24.7065 163.895 0 185.26C0 185.26 20.075 175.616 28.6026 146.576C37.1302 117.536 36.2696 79.6285 36.2696 79.6285Z" fill="white"/>
<path d="M246.902 135.244C246.902 135.244 255.595 166.851 286.196 154.32C286.196 154.32 278.416 164.832 260.585 162.037C242.753 159.225 234.275 144.512 246.902 135.244Z" fill="white"/>
<path d="M215.437 275.841C211.573 275.841 208.395 274.686 206.264 272.483C205.741 271.941 205.271 271.327 204.892 270.677C203.791 268.781 205.199 266.416 207.384 266.416H207.582C208.576 266.416 209.496 266.939 210.02 267.788C210.219 268.113 210.453 268.42 210.742 268.709C211.862 269.865 213.487 270.479 215.329 270.479C218.922 270.479 221.342 268.384 221.342 265.242C221.342 260.547 216.358 260.132 214.498 259.97L214.372 259.952C211.176 259.717 203.809 258.254 203.809 249.804C203.809 243.231 208.142 239.15 215.13 239.15C218.615 239.15 221.486 240.234 223.472 242.274C224.032 242.852 224.52 243.502 224.917 244.224C225.964 246.138 224.592 248.467 222.425 248.467C221.396 248.467 220.439 247.89 219.933 247.005C219.753 246.68 219.518 246.373 219.265 246.102C218.29 245.055 216.882 244.459 215.311 244.459C212.042 244.459 209.858 246.59 209.858 249.75C209.858 251.357 210.616 254.137 215.636 254.805C222.949 255.546 227.445 257.568 227.445 265.35C227.427 271.833 222.84 275.841 215.437 275.841Z" fill="white"/>
<path d="M70.3154 272.752V245.053H65.2956C63.7608 245.053 62.5149 243.807 62.5149 242.272C62.5149 240.738 63.7608 239.492 65.2956 239.492H81.2577C82.7925 239.492 84.0385 240.738 84.0385 242.272C84.0385 243.807 82.7925 245.053 81.2577 245.053H76.2921V272.752C76.2921 274.287 75.0462 275.533 73.5114 275.533H73.06C71.5432 275.515 70.3154 274.269 70.3154 272.752Z" fill="white"/>
<path d="M120.333 275.515V239.492H135.32C136.836 239.492 138.064 240.72 138.064 242.236C138.064 243.753 136.836 244.981 135.32 244.981H126.562V254.1H134.309C135.825 254.1 137.053 255.327 137.053 256.844V256.898C137.053 258.415 135.825 259.643 134.309 259.643H126.562V269.556H135.789C137.306 269.556 138.534 270.784 138.534 272.301V272.752C138.534 274.269 137.306 275.497 135.789 275.497H120.333V275.515Z" fill="white"/>
<path d="M181.167 275.515V239.492H196.154C197.671 239.492 198.899 240.72 198.899 242.236C198.899 243.753 197.671 244.981 196.154 244.981H187.379V254.1H195.125C196.642 254.1 197.87 255.327 197.87 256.844V256.898C197.87 258.415 196.642 259.643 195.125 259.643H187.379V269.556H196.606C198.122 269.556 199.35 270.784 199.35 272.301V272.752C199.35 274.269 198.122 275.497 196.606 275.497H181.167V275.515Z" fill="white"/>
<path d="M107.097 272.322V260.097H94.8544V272.322C94.8544 274.037 93.464 275.427 91.7486 275.427C90.0332 275.427 88.6429 274.037 88.6429 272.322V242.51C88.6429 240.795 90.0332 239.404 91.7486 239.404C93.464 239.404 94.8544 240.795 94.8544 242.51V254.229H107.097V242.51C107.097 240.795 108.487 239.404 110.203 239.404C111.918 239.404 113.308 240.795 113.308 242.51V272.322C113.308 274.037 111.918 275.427 110.203 275.427C108.487 275.409 107.097 274.037 107.097 272.322Z" fill="white"/>
<path d="M167.623 272.375V254.228L160.527 268.132C159.877 269.395 158.071 269.395 157.421 268.132L150.361 254.192V272.375C150.361 274.108 148.952 275.517 147.219 275.517C145.486 275.517 144.077 274.108 144.077 272.375V242.654C144.077 239.71 147.779 238.374 149.639 240.667L158.468 258.706C158.667 259.121 159.281 259.121 159.479 258.706L168.309 240.667C170.169 238.392 173.871 239.71 173.871 242.654V272.375C173.871 274.108 172.462 275.517 170.729 275.517C169.031 275.517 167.623 274.108 167.623 272.375Z" fill="white"/>
<path d="M166.919 116.583V87.8371H161.719C160.13 87.8371 158.848 86.5551 158.848 84.9661C158.848 83.3771 160.13 82.0951 161.719 82.0951H178.295C179.884 82.0951 181.166 83.3771 181.166 84.9661C181.166 86.5551 179.884 87.8371 178.295 87.8371H173.149V116.583C173.149 118.172 171.867 119.454 170.278 119.454H169.808C168.219 119.454 166.919 118.172 166.919 116.583Z" fill="white"/>
<path d="M136.133 119.219V82.3291H151.481C153.034 82.3291 154.298 83.5931 154.298 85.146C154.298 86.6989 153.034 87.9628 151.481 87.9628H142.507V97.3162H150.452C152.005 97.3162 153.269 98.5801 153.269 100.133V100.187C153.269 101.74 152.005 103.004 150.452 103.004H142.507V113.17H151.951C153.503 113.17 154.767 114.434 154.767 115.987V116.456C154.767 118.009 153.503 119.273 151.951 119.273H136.133V119.219Z" fill="white"/>
<path d="M117.967 119.761C110.871 119.761 105.093 113.982 105.093 106.886V94.8424C105.093 87.7461 110.871 81.968 117.967 81.968C121.127 81.968 124.161 83.1236 126.508 85.2182C126.869 85.5432 127.231 85.9043 127.556 86.2654C128.711 87.5475 128.603 89.5337 127.303 90.6893C126.021 91.845 124.035 91.7366 122.879 90.4365C122.716 90.256 122.536 90.0754 122.337 89.8948C121.127 88.8295 119.575 88.2336 117.949 88.2336C114.302 88.2336 111.341 91.1949 111.341 94.8424V106.886C111.341 110.534 114.302 113.495 117.949 113.495C121.597 113.495 124.558 110.534 124.558 106.886V106.742H120.243C118.509 106.742 117.119 105.333 117.119 103.618C117.119 101.903 118.527 100.494 120.243 100.494H127.682C129.415 100.494 130.806 101.903 130.806 103.618V106.886C130.842 113.982 125.064 119.761 117.967 119.761Z" fill="white"/>
<path d="M157.705 277.72C157.705 277.72 159.908 299.009 166.517 299.731C173.125 300.471 183.418 300.525 187.986 297.889C192.554 295.253 197.827 279.182 197.827 279.182L187.065 279.435C187.065 279.435 177.784 293.862 175.075 291.912C171.139 289.059 168.701 277.72 168.701 277.72H157.705Z" fill="white"/>
<defs>
<linearGradient id="paint0_linear" x1="143.11" y1="10.6445" x2="143.11" y2="318.949" gradientUnits="userSpaceOnUse">
<stop stop-color="#A002FC"/>
<stop offset="0.9969" stop-color="#7302FC"/>
</linearGradient>
</defs>
</svg>
