<svg width="58" height="64" viewBox="0 0 58 64" fill="none" xmlns="http://www.w3.org/2000/svg">
<path d="M0.00683594 19.373V44.627C0.00683594 47.0358 1.29247 49.264 3.37982 50.4665L25.25 63.0954C27.3374 64.3015 29.9087 64.3015 31.996 63.0954L53.8662 50.4665C55.9536 49.2603 57.2392 47.0358 57.2392 44.627V19.373C57.2392 16.9642 55.9536 14.736 53.8662 13.5335L31.996 0.904638C29.9087 -0.301546 27.3374 -0.301546 25.25 0.904638L3.37982 13.5298C1.29247 14.736 0.00683594 16.9606 0.00683594 19.373Z" fill="url(#paint0_linear)"/>
<path d="M53.975 31.8537C53.9641 31.1675 53.975 30.4778 53.9388 29.7916C53.9063 29.1813 53.8738 28.5602 53.7402 27.9643C53.6499 27.567 53.4766 27.0687 53.1732 26.8556C51.7107 25.8444 49.4644 25.4219 48.2185 27.6826C48.0704 27.9498 47.8393 28.199 47.5937 28.3832C46.8606 28.9321 46.0806 29.4197 45.3547 29.9758C44.6144 30.5428 43.9102 31.1531 43.1987 31.7598C42.5126 32.3448 41.8373 32.9515 41.1403 33.5619C41.1403 32.3557 41.1295 31.2037 41.1439 30.0553C41.1583 28.7877 41.18 27.5201 41.2197 26.2525C41.245 25.4039 41.0645 25.003 40.4252 24.8188C40.0316 24.7069 39.6127 24.6708 39.201 24.6491C38.8435 24.631 38.5293 24.761 38.4174 25.1547C38.3054 25.5519 38.0273 25.653 37.6481 25.6458C36.8356 25.635 36.023 25.6097 35.2141 25.6711C34.7193 25.7108 34.0874 25.7542 33.7804 26.0611C33.0979 26.7437 32.5381 27.5634 32.0145 28.3796C31.6353 28.9719 31.3789 29.6472 31.0864 30.2936C30.9419 30.6114 30.8805 30.9725 30.718 31.2723C30.5121 31.6515 27.1969 38.6502 26.6986 39.9178C26.5144 40.3837 26.2616 40.8206 26.0269 41.3009C25.7921 40.9362 25.236 38.6719 25.171 37.8232C25.1421 37.4693 25.1999 37.1082 25.2107 36.7507C25.2215 36.4112 25.2107 36.0681 25.236 35.7287C25.2541 35.4867 25.3154 35.2483 25.3624 35.01C25.5068 34.2263 25.6296 33.4391 25.8102 32.6626C25.951 32.0451 26.1894 31.4528 26.3375 30.8389C26.5758 29.835 26.7564 28.8166 27.0019 27.8126C27.3956 26.2128 27.1608 26.1225 25.9655 25.8228C25.478 25.7 25.189 25.8697 24.9651 26.1586C24.5462 26.7003 24.1779 27.2854 23.8348 27.8776C22.8995 29.5027 21.9461 31.117 21.083 32.7782C20.2813 34.3238 19.5987 35.9345 18.8476 37.5054C18.6562 37.9027 18.4034 38.271 18.1 38.7874C17.9989 38.336 17.8942 38.0543 17.8761 37.7618C17.7389 35.4831 18.0747 33.2549 18.6742 31.0628C18.8909 30.2683 19.1834 29.4883 19.3098 28.6793C19.4506 27.7837 19.4181 27.224 18.2986 26.9351C18.1722 26.9026 18.0422 26.8701 17.9267 26.8159C17.5475 26.6317 17.2513 26.7473 17.0852 27.0976C16.7241 27.8596 16.2582 28.6107 16.0885 29.4197C15.7274 31.1242 15.4348 32.854 15.294 34.5875C15.164 36.2306 15.2615 37.8954 15.9079 39.4664C16.4966 40.8929 18.5659 41.3045 19.6745 40.2175C20.8807 39.033 21.4658 37.4801 22.1772 36.0031C22.56 35.2086 22.9284 34.4069 23.3075 33.6052C23.3509 34.295 23.3184 34.945 23.2967 35.5986C23.2714 36.357 23.1559 37.1298 23.2642 37.8666C23.4267 38.9969 23.7012 40.12 24.0154 41.2179C24.1887 41.8246 24.4596 42.4349 24.8243 42.9441C25.2613 43.5508 26.4638 43.4713 27.038 42.7888C27.6231 42.0954 28.172 41.3443 28.5909 40.5426C29.0784 39.6072 29.4071 38.5888 29.8188 37.5704C30.2666 39.163 31.5594 39.293 32.6392 38.9969C33.459 38.773 33.9537 38.1735 34.4341 37.5343C35.8533 35.6528 36.3192 33.3091 37.4603 31.2903C37.8431 30.615 38.1971 29.9252 38.5907 29.1994C38.5907 30.6764 38.5871 32.0523 38.5907 33.4282C38.5943 34.508 38.4462 35.4795 37.8359 36.4798C36.6406 38.4408 35.6872 40.5462 34.6435 42.601C34.3149 43.2438 33.9971 43.8975 33.7335 44.5692C33.4915 45.1795 33.3254 45.8223 33.1231 46.4507C32.8884 47.191 32.5923 47.9169 32.4189 48.668L32.9209 47.646L32.9859 47.5666C33.2748 47.2127 33.6973 47.0141 34.1488 47.0141C34.4413 47.0141 34.7157 47.0971 34.9469 47.2416C35.1058 46.494 35.3116 45.7573 35.568 45.0278C35.8533 44.2189 36.2506 43.4497 36.5936 42.6588C36.7778 42.2327 36.9331 41.7957 37.1281 41.3732C37.4134 40.7556 37.7168 40.1489 38.0201 39.5422C38.0454 39.4917 38.1321 39.47 38.2548 39.3978C38.2548 40.0803 38.2837 40.6798 38.244 41.272C38.2151 41.7271 38.0851 42.1713 38.0165 42.6227C37.7926 44.0853 37.6156 45.5551 37.3665 47.0141H39.2299C39.3744 47.0141 39.5152 47.0357 39.6452 47.0754C39.721 46.5843 39.7897 46.0932 39.8583 45.6056C40.1905 43.121 40.4541 40.6292 40.7358 38.141C40.8189 37.4188 40.7467 36.7109 41.3028 36.0681C42.9243 34.1974 44.6938 32.4965 46.6403 30.9725C46.792 30.8534 46.9545 30.745 47.2109 30.5608C46.4923 32.7421 46.142 34.815 46.3948 36.9673C46.6692 39.3039 47.7671 40.1886 50.36 39.6217C51.0787 39.4628 51.4687 38.8958 51.8732 38.3469C52.9963 36.8301 53.863 35.2014 54.0002 33.2766C54.0364 32.8107 53.9858 32.3304 53.975 31.8537ZM38.4571 26.9315C35.8136 29.7302 34.4738 33.3632 32.3575 36.5015C32.2817 36.4726 32.2059 36.4437 32.13 36.4148C32.5164 35.2122 32.8198 33.9735 33.3073 32.8143C33.914 31.3698 34.6146 29.9577 35.3947 28.5999C35.7811 27.9246 36.3806 27.3287 36.9981 26.8448C37.3484 26.5703 37.9298 26.5956 38.4643 26.4692C38.4643 26.722 38.5112 26.8737 38.4571 26.9315ZM52.1332 32.3918C51.6854 34.2119 50.75 35.7973 49.7425 37.3465C49.5836 37.5921 49.3452 37.7871 49.0708 38.0869C48.5796 36.8157 48.5327 35.595 48.7421 34.4177C49.0238 32.8288 49.4861 31.2723 49.8689 29.7013C49.905 29.5569 49.9086 29.4052 49.9158 29.2571C49.9267 29.0116 49.8328 28.6721 49.9556 28.5421C50.3636 28.1124 50.8078 27.6718 51.3279 27.4045C51.7251 27.1987 51.8587 27.7512 51.9779 28.0004C52.6532 29.4305 52.4979 30.9111 52.1332 32.3918Z" fill="white"/>
<path d="M13.2213 24.8261C12.5965 24.5986 11.9682 24.7503 11.412 25.1439C10.4731 25.8048 9.80137 26.6859 9.27772 27.6863C8.66019 28.8708 8.02459 30.0517 7.454 31.2615C6.97008 32.2871 6.56922 33.3489 6.13225 34.3961C5.98419 34.2806 5.92641 34.1542 5.93002 34.035C5.97697 32.8505 6.00586 31.6624 6.09614 30.4815C6.19365 29.1669 6.30199 27.8524 6.48978 26.5487C6.91952 23.5405 7.49011 20.5611 8.49045 17.6757C8.87325 16.5742 8.33517 16.0722 7.20482 16.1481C6.84369 16.1734 6.497 16.3828 6.14309 16.4984C5.56166 16.6862 5.27637 17.1051 5.17164 17.6901C4.72745 20.1458 4.19297 22.5907 3.84267 25.0608C3.4382 27.9246 3.13485 30.8029 3.26486 33.7136C3.42014 37.2057 3.45626 40.7051 3.60793 44.2009C3.63321 44.8076 3.47431 45.6165 4.44215 45.8729C5.12469 46.0535 6.13948 45.5876 6.19726 44.9087C6.29115 43.8036 6.40671 42.695 6.41755 41.5863C6.43561 39.6145 7.04953 37.7655 7.519 35.8912C7.78624 34.8295 8.1221 33.7858 8.47962 32.753C8.79019 31.8538 10.6789 27.8452 11.8454 27.0832C11.8454 27.0832 10.0144 42.9875 12.2715 46.8661C12.7193 46.5338 13.1816 46.3677 13.3044 46.0643C13.5066 45.5515 13.5897 44.9448 13.5535 44.3923C13.4633 42.9803 13.1491 41.5718 13.1635 40.167C13.178 38.2783 13.4163 36.3932 13.5499 34.5045C13.5608 34.3384 14.0519 30.0914 14.1061 29.4775C14.1964 28.4374 14.2397 27.3938 14.2541 26.3501C14.265 25.6206 13.8786 25.0681 13.2213 24.8261Z" fill="white"/>
<path d="M40.6851 17.878L45.6037 13.1002C46.0551 12.6633 46.7991 12.8041 47.0591 13.3747C47.2469 13.7828 47.106 14.2667 46.7305 14.5123L40.9848 18.25C40.8621 18.3295 40.6959 18.2825 40.6382 18.1489C40.5912 18.0586 40.6129 17.9503 40.6851 17.878Z" fill="#FCE100"/>
<path d="M28.8613 13.9235L29.3705 7.15226C29.4138 6.5564 28.8938 6.07609 28.3016 6.16998C27.8249 6.24582 27.489 6.67557 27.5251 7.15588L28.0415 13.9235C28.0596 14.1474 28.251 14.3135 28.4749 14.3027C28.6807 14.2883 28.8433 14.1257 28.8613 13.9235Z" fill="#FCE100"/>
<path d="M17.8794 17.3902L14.0803 13.5622C13.6433 13.1216 12.8994 13.2552 12.643 13.8186C12.4588 14.2266 12.6033 14.707 12.9861 14.9417L17.5761 17.7694C17.7025 17.8452 17.865 17.7983 17.9264 17.661C17.9733 17.5707 17.9517 17.4624 17.8794 17.3902Z" fill="#FCE100"/>
<path d="M7.25392 15.9258C7.25392 15.9258 4.9413 32.7791 0 37.0521C0 37.0521 4.015 35.1233 5.72052 29.3153C7.42604 23.5073 7.25392 15.9258 7.25392 15.9258Z" fill="white"/>
<path d="M49.3804 27.0488C49.3804 27.0488 51.1189 33.3702 57.2392 30.864C57.2392 30.864 55.6832 32.9663 52.1169 32.4074C48.5506 31.8449 46.855 28.9023 49.3804 27.0488Z" fill="white"/>
<path d="M43.0874 55.1683C42.3146 55.1683 41.679 54.9372 41.2529 54.4966C41.1481 54.3883 41.0542 54.2655 40.9784 54.1355C40.7581 53.7563 41.0398 53.2832 41.4768 53.2832H41.5165C41.7151 53.2832 41.8993 53.3879 42.004 53.5576C42.0437 53.6227 42.0907 53.684 42.1485 53.7418C42.3724 53.973 42.6974 54.0957 43.0657 54.0957C43.7844 54.0957 44.2683 53.6768 44.2683 53.0485C44.2683 52.1095 43.2716 52.0264 42.8996 51.9939L42.8743 51.9903C42.2351 51.9434 40.7617 51.6509 40.7617 49.9608C40.7617 48.6462 41.6284 47.8301 43.026 47.8301C43.723 47.8301 44.2972 48.0468 44.6945 48.4548C44.8064 48.5704 44.9039 48.7004 44.9834 48.8449C45.1928 49.2277 44.9184 49.6935 44.485 49.6935C44.2792 49.6935 44.0878 49.578 43.9866 49.401C43.9505 49.336 43.9036 49.2746 43.853 49.2204C43.658 49.011 43.3763 48.8918 43.0621 48.8918C42.4085 48.8918 41.9715 49.3179 41.9715 49.9499C41.9715 50.2713 42.1232 50.8275 43.1271 50.9611C44.5897 51.1092 45.489 51.5136 45.489 53.0701C45.4853 54.3666 44.5681 55.1683 43.0874 55.1683Z" fill="white"/>
<path d="M14.063 54.5505V49.0107H13.0591C12.7521 49.0107 12.5029 48.7615 12.5029 48.4546C12.5029 48.1476 12.7521 47.8984 13.0591 47.8984H16.2515C16.5585 47.8984 16.8076 48.1476 16.8076 48.4546C16.8076 48.7615 16.5585 49.0107 16.2515 49.0107H15.2584V54.5505C15.2584 54.8575 15.0092 55.1067 14.7022 55.1067H14.6119C14.3086 55.103 14.063 54.8539 14.063 54.5505Z" fill="white"/>
<path d="M24.0664 55.103V47.8984H27.0638C27.3672 47.8984 27.6127 48.144 27.6127 48.4474C27.6127 48.7507 27.3672 48.9963 27.0638 48.9963H25.3123V50.82H26.8616C27.1649 50.82 27.4105 51.0656 27.4105 51.3689V51.3798C27.4105 51.6831 27.1649 51.9287 26.8616 51.9287H25.3123V53.9113H27.1577C27.4611 53.9113 27.7066 54.1569 27.7066 54.4602V54.5505C27.7066 54.8539 27.4611 55.0994 27.1577 55.0994H24.0664V55.103Z" fill="white"/>
<path d="M36.2334 55.103V47.8984H39.2308C39.5342 47.8984 39.7797 48.144 39.7797 48.4474C39.7797 48.7507 39.5342 48.9963 39.2308 48.9963H37.4757V50.82H39.025C39.3283 50.82 39.5739 51.0656 39.5739 51.3689V51.3798C39.5739 51.6831 39.3283 51.9287 39.025 51.9287H37.4757V53.9113H39.3211C39.6244 53.9113 39.87 54.1569 39.87 54.4602V54.5505C39.87 54.8539 39.6244 55.0994 39.3211 55.0994H36.2334V55.103Z" fill="white"/>
<path d="M21.4193 54.4643V52.0194H18.9708V54.4643C18.9708 54.8074 18.6927 55.0855 18.3497 55.0855C18.0066 55.0855 17.7285 54.8074 17.7285 54.4643V48.502C17.7285 48.1589 18.0066 47.8809 18.3497 47.8809C18.6927 47.8809 18.9708 48.1589 18.9708 48.502V50.8458H21.4193V48.502C21.4193 48.1589 21.6974 47.8809 22.0404 47.8809C22.3835 47.8809 22.6616 48.1589 22.6616 48.502V54.4643C22.6616 54.8074 22.3835 55.0855 22.0404 55.0855C21.6974 55.0819 21.4193 54.8074 21.4193 54.4643Z" fill="white"/>
<path d="M33.5246 54.475V50.8456L32.1054 53.6264C31.9753 53.8791 31.6142 53.8791 31.4842 53.6264L30.0722 50.8384V54.475C30.0722 54.8217 29.7905 55.1034 29.4438 55.1034C29.0971 55.1034 28.8154 54.8217 28.8154 54.475V48.5308C28.8154 47.9421 29.5557 47.6749 29.9277 48.1335L31.6937 51.7412C31.7334 51.8243 31.8562 51.8243 31.8959 51.7412L33.6618 48.1335C34.0338 47.6785 34.7741 47.9421 34.7741 48.5308V54.475C34.7741 54.8217 34.4924 55.1034 34.1458 55.1034C33.8063 55.1034 33.5246 54.8217 33.5246 54.475Z" fill="white"/>
<path d="M33.3838 23.3166V17.5673H32.3437C32.0259 17.5673 31.7695 17.3109 31.7695 16.9931C31.7695 16.6754 32.0259 16.4189 32.3437 16.4189H35.6589C35.9767 16.4189 36.2331 16.6754 36.2331 16.9931C36.2331 17.3109 35.9767 17.5673 35.6589 17.5673H34.6297V23.3166C34.6297 23.6344 34.3733 23.8908 34.0555 23.8908H33.9616C33.6438 23.8908 33.3838 23.6344 33.3838 23.3166Z" fill="white"/>
<path d="M27.2266 23.8438V16.4658H30.2962C30.6068 16.4658 30.8596 16.7186 30.8596 17.0292C30.8596 17.3398 30.6068 17.5926 30.2962 17.5926H28.5014V19.4632H30.0903C30.4009 19.4632 30.6537 19.716 30.6537 20.0266V20.0374C30.6537 20.348 30.4009 20.6008 30.0903 20.6008H28.5014V22.634H30.3901C30.7007 22.634 30.9535 22.8868 30.9535 23.1973V23.2912C30.9535 23.6018 30.7007 23.8546 30.3901 23.8546H27.2266V23.8438Z" fill="white"/>
<path d="M23.5934 23.9521C22.1742 23.9521 21.0186 22.7964 21.0186 21.3772V18.9684C21.0186 17.5492 22.1742 16.3936 23.5934 16.3936C24.2254 16.3936 24.8321 16.6247 25.3016 17.0436C25.3738 17.1086 25.446 17.1808 25.5111 17.2531C25.7422 17.5095 25.7205 17.9067 25.4605 18.1378C25.2041 18.369 24.8068 18.3473 24.5757 18.0873C24.5432 18.0512 24.5071 18.015 24.4674 17.9789C24.2254 17.7659 23.9148 17.6467 23.5898 17.6467C22.8603 17.6467 22.2681 18.2389 22.2681 18.9684V21.3772C22.2681 22.1067 22.8603 22.6989 23.5898 22.6989C24.3193 22.6989 24.9116 22.1067 24.9116 21.3772V21.3483H24.0485C23.7018 21.3483 23.4237 21.0666 23.4237 20.7235C23.4237 20.3805 23.7054 20.0988 24.0485 20.0988H25.5363C25.883 20.0988 26.1611 20.3805 26.1611 20.7235V21.3772C26.1683 22.7964 25.0127 23.9521 23.5934 23.9521Z" fill="white"/>
<path d="M31.541 55.5439C31.541 55.5439 31.9816 59.8017 33.3033 59.9462C34.6251 60.0942 36.6835 60.1051 37.5972 59.5778C38.5109 59.0505 39.5654 55.8365 39.5654 55.8365L37.413 55.887C37.413 55.887 35.5568 58.7725 35.0151 58.3825C34.2278 57.8119 33.7403 55.5439 33.7403 55.5439H31.541Z" fill="white"/>
<defs>
<linearGradient id="paint0_linear" x1="28.6221" y1="2.1289" x2="28.6221" y2="63.7899" gradientUnits="userSpaceOnUse">
<stop stop-color="#A002FC"/>
<stop offset="0.9969" stop-color="#7302FC"/>
</linearGradient>
</defs>
</svg>
