<svg width="173" height="182" viewBox="0 0 173 182" fill="none" xmlns="http://www.w3.org/2000/svg">
<path d="M65.7396 131.401C65.7396 111.24 53.1095 93.1968 34.125 86.3718C13.65 78.9977 0 59.5424 0 37.7338V10.277C36.4 10.277 65.8179 39.7736 65.8179 76.0951L65.7396 131.401Z" fill="#0074BC"/>
<path d="M132.813 45.1862H172.507C172.821 45.1862 172.9 44.7154 172.507 44.637L132.107 39.1458L132.813 45.1862Z" fill="#0074BC"/>
<path d="M132.342 44.7937C109.906 40.1653 86.6067 47.6179 70.9955 64.4058L65.7396 70.0541V107.709V140.108C65.7396 140.108 65.7395 140.108 65.8179 140.108V182C78.0558 182 85.9791 169.056 80.3309 158.23L75.075 148.032C70.9172 139.873 73.1136 129.91 80.2523 124.105C97.6679 110.063 109.828 92.8824 112.809 75.6238C117.045 51.0695 134.068 45.1859 134.068 45.1859L132.342 44.7937Z" fill="url(#paint0_linear)"/>
<path d="M65.7396 113.593V59.3065C65.7396 46.0488 72.0154 35.7723 81.8214 29.5749C95.7852 20.7102 113.907 22.0437 126.772 32.3989C131.009 35.7722 134.146 40.0084 134.146 45.186C96.3344 45.186 65.7396 75.7808 65.7396 113.593Z" fill="url(#paint1_linear)"/>
<path d="M65.7396 107.709C65.7396 87.5483 53.1095 69.5053 34.125 62.6803C13.65 55.3061 0 35.8509 0 14.0423V0C36.4 0 65.8179 29.4966 65.8179 65.8182L65.7396 107.709Z" fill="url(#paint2_linear)"/>
<path d="M65.7397 133.283L55.3059 182H65.7397V133.283Z" fill="#0074BC"/>
<defs>
<linearGradient id="paint0_linear" x1="109.474" y1="48.7146" x2="56.176" y2="155.312" gradientUnits="userSpaceOnUse">
<stop stop-color="#FFDD00"/>
<stop offset="1" stop-color="#EF4056"/>
</linearGradient>
<linearGradient id="paint1_linear" x1="136.411" y1="68.6616" x2="-7.61573" y2="68.6616" gradientUnits="userSpaceOnUse">
<stop stop-color="#5BC4BF"/>
<stop offset="1" stop-color="#2A5CAA"/>
</linearGradient>
<linearGradient id="paint2_linear" x1="-0.0729567" y1="53.8806" x2="108.378" y2="53.8806" gradientUnits="userSpaceOnUse">
<stop stop-color="#5BC4BF"/>
<stop offset="1" stop-color="#2A5CAA"/>
</linearGradient>
</defs>
</svg>
